<svg xmlns="http://www.w3.org/2000/svg" viewBox="0 0 48 48">
  <defs><style>g {display:none} g:target {display:inline}</style></defs>
  <g id="blue" fill="#84efff">
    <path class="gfx-icon-container" d="M27.39,1.1H20.61A17,17,0,0,0,5.86,9.61L2.47,15.49a17,17,0,0,0,0,17l3.39,5.88A17,17,0,0,0,20.61,46.9h6.78a17,17,0,0,0,14.75-8.51l3.39-5.88a17,17,0,0,0,0-17L42.14,9.61A17,17,0,0,0,27.39,1.1Z"/>
  </g>
  <g id="white" fill="#fff">
    <path class="gfx-icon-container" d="M27.39,1.1H20.61A17,17,0,0,0,5.86,9.61L2.47,15.49a17,17,0,0,0,0,17l3.39,5.88A17,17,0,0,0,20.61,46.9h6.78a17,17,0,0,0,14.75-8.51l3.39-5.88a17,17,0,0,0,0-17L42.14,9.61A17,17,0,0,0,27.39,1.1Z"/>
  </g>
</svg>
