<svg xmlns="http://www.w3.org/2000/svg" xmlns:xlink="http://www.w3.org/1999/xlink" viewBox="0 0 812 812">
<g>
	<path d="M630.9,367.2c-7.9-8.1-18.8-12.3-30.1-11.7L465,363l74.8-85.2c10.7-12.1,13.7-28.3,9.6-42.7c-2.2-9.9-8.2-18.9-17.4-24.7
		c-0.3-0.2-178.7-103.9-178.7-103.9c-14.6-8.5-32.9-6.6-45.5,4.6l-87.2,77.8c-16.1,14.3-17.5,39-3.1,55c14.3,16.1,39,17.5,55,3.1
		l66.1-58.9l54.6,31.7l-96.4,109.8c-40,6.5-76,24.9-104.2,51.5l50.4,50.4c22.8-20.7,53-33.3,86.1-33.3
		c70.6,0,128.1,57.5,128.1,128.1c0,33.1-12.6,63.3-33.3,86.1l50.4,50.4c33.5-35.7,54.1-83.6,54.1-136.5c0-31.5-7.3-61.2-20.3-87.7
		l52.6-2.9l-12.8,156.9c-1.7,21.4,14.2,40.3,35.7,42c1.1,0.1,2.1,0.1,3.2,0.1c20.1,0,37.1-15.4,38.8-35.8l16.4-201.5
		C642.8,386.3,638.8,375.2,630.9,367.2z"/>
	<path d="M558.8,200.2c36,0,65.2-29.2,65.2-65.2c0-36-29.2-65.2-65.2-65.2c-36,0-65.2,29.2-65.2,65.2
		C493.5,171,522.7,200.2,558.8,200.2z"/>
	<path d="M329,654.5c-70.6,0-128.1-57.5-128.1-128.1c0-26.6,8.2-51.4,22.1-71.9l-50.9-50.9c-26.5,33.8-42.4,76.5-42.4,122.8
		c0,110.1,89.2,199.3,199.3,199.3c46.3,0,88.9-15.9,122.8-42.4l-50.9-50.9C380.4,646.3,355.6,654.5,329,654.5z"/>
</g>
</svg>
