<svg xmlns="http://www.w3.org/2000/svg" xmlns:xlink="http://www.w3.org/1999/xlink"
	 viewBox="0 0 100 100">
  <path d="M14,37.2c2.9,0,5.3,2.4,5.3,5.3c0,2.9-2.4,5.3-5.3,5.3s-5.3-2.4-5.3-5.3C8.6,39.6,11,37.2,14,37.2z"/>
  <path d="M49.4,7.5c3.9,0,7,3.1,7,7s-3.2,7-7,7c-3.9,0-7-3.1-7-7C42.3,10.6,45.5,7.5,49.4,7.5z"/>
  <path d="M10.7,30.2l1.1,1.7c2.5-1.6,5.8-0.8,7.4,1.7l1.7-1.1C18.7,29.1,14.1,28,10.7,30.2z"/>
  <path d="M15.6,21.9l0.7,1.9c2.8-1,5.9,0.5,6.9,3.3l1.9-0.7C23.7,22.6,19.5,20.6,15.6,21.9z"/>
  <path d="M22.3,15l0.2,2c3-0.3,5.6,1.8,5.9,4.8l2-0.2C30,17.5,26.3,14.6,22.3,15z"/>
  <path d="M30.1,11.8c2.9,0.4,5.1,3,4.7,6l2,0.2c0.5-4.1-2.4-7.8-6.5-8.3L30.1,11.8z"/>
  <path d="M62.7,9.1c1.7,2.4,1.2,5.8-1.2,7.5l1.2,1.7c3.3-2.4,4.1-7.1,1.7-10.4L62.7,9.1z"/>
  <path d="M71,13.1c1.2,2.7-0.1,5.9-2.9,7.1l0.8,1.9c3.8-1.6,5.5-6,4-9.7L71,13.1z"/>
  <path d="M78.2,18.9c0.5,2.9-1.5,5.7-4.4,6.2l0.3,2c4-0.7,6.8-4.6,6.1-8.6L78.2,18.9z"/>
  <path d="M78.3,31.2l-0.1,2c4.1,0.2,7.6-2.9,7.8-7l-2-0.1C83.8,29.1,81.3,31.4,78.3,31.2z"/>
  <path d="M83.8,48.6c-3,0-5.4-2.4-5.4-5.3c0-2.9,2.4-5.3,5.4-5.3c3,0,5.4,2.4,5.4,5.3C89.1,46.2,86.7,48.6,83.8,48.6z"/>
  <path d="M13.9,55.7c1.9,0,3.1-0.7,3.1-6c-1.9,0-4.2,0-6.1,0C10.9,55,11.9,55.7,13.9,55.7z"/>
  <path d="M21.1,58.1h2c0,0,0,13.4,0,14.9c0,1.3,1,2.3,2.3,2.3c1.3,0,2.3-1.1,2.3-2.3c0-1.3,0-14.6,0-16.5c0-3.8-3.1-6.8-6.9-6.8
    c-0.4,0-1.3,0-2.4,0c0,5.2-1.5,7.4-3.8,7.4v6c0.7,0.3,1.1,0.9,1.1,1.7c0,1-0.8,1.9-1.8,1.9c-1,0-1.8-0.8-1.8-1.8
    c0-0.8,0.5-1.4,1.1-1.7v-6c-2.3,0-3.8-2.4-3.8-7.4c-1.1,0-1.9,0-2.3,0c-3.8,0-7.1,3.1-7.1,6.8C0,58.4,0,71.7,0,73
    c0,1.3,1,2.3,2.3,2.3c1.3,0,2.3-1.1,2.3-2.3c0-1.5,0-14.9,0-14.9h1.9v18.8h14.5V58.1z"/>
  <path d="M57.6,47.5l0.7,41.1c0,2.2-1.8,4-4,4c-2.2,0-4-1.8-4-4V54.2h-2v34.3c0,2.2-1.8,4-4,4s-4-1.8-4-4V46L43,29.7l4.1-4.3l5.6-0.9
    l2.4,4L57.6,47.5z"/>
  <path d="M56.6,32.4l2.6,0l5.3,18.4c0.4,1.4,2,2.2,3.5,1.7c1.5-0.4,2.5-1.8,2-3.5l-5.4-18.8c-2.2-7.5-8.5-7.3-8.5-7.3H42.7
    c0,0-6.3-0.2-8.5,7.3L28.8,49c-0.5,1.8,0.5,3.1,2,3.5c1.5,0.4,3.1-0.3,3.5-1.7l5.3-18.4l2.6,0l-7,24.5h28.6L56.6,32.4z"/>
  <path d="M91.8,57.7h-1.3v19.2l-13.4,0V57.7h-1.3l0,15.3c0,1.3-1,2.3-2.3,2.3s-2.3-1-2.3-2.3V56c0-3.7,2.7-5.8,6.3-5.8H90
    c3.7,0,6.3,2.1,6.3,5.8V73c0,1.3-1,2.3-2.3,2.3c-1.2,0-2.3-1-2.3-2.3L91.8,57.7z"/>
</svg>
